inDegrees=yes
name=ik_S44_A08_T02
DataType=double
version=3
OpenSimVersion=4.3-2021-08-27-4bc7ad9
endheader
time	pelvis_tilt	pelvis_list	pelvis_rotation	pelvis_tx	pelvis_ty	pelvis_tz	hip_flexion_r	hip_adduction_r	hip_rotation_r	knee_angle_r	knee_angle_r_beta	ankle_angle_r	subtalar_angle_r	mtp_angle_r	hip_flexion_l	hip_adduction_l	hip_rotation_l	knee_angle_l	knee_angle_l_beta	ankle_angle_l	subtalar_angle_l	mtp_angle_l	lumbar_extension	lumbar_bending	lumbar_rotation	arm_flex_r	arm_add_r	arm_rot_r	elbow_flex_r	pro_sup_r	wrist_flex_r	wrist_dev_r	arm_flex_l	arm_add_l	arm_rot_l	elbow_flex_l	pro_sup_l	wrist_flex_l	wrist_dev_l
20.39999999999965	-7.51728538817393	-2.329600950600101	32.06458384019363	0	0.9399999999999999	0	37.42727759516738	-10.11222737650726	-9.897744741265168	40.55013313776956	0.7077333353761381	0	0	0	37.42727759516738	-10.11222737650726	-9.897744741265168	40.55013313776956	0.7077333353761381	0	0	0	-6.797367868836986	-0.9836642622745119	1.832610545115928	38.63928530768096	-1.666860076789875	6.337514246991079	32.30064692620641	135.6294300342021	0	0	82.88575600699285	3.394646716072238	-4.058553071421972	12.10693599285352	98.00470976060022	0	0
20.41999999999965	-7.520460546695272	-2.322211993677407	32.15754675449691	0	0.9399999999999999	0	37.42964998687555	-10.11210867056947	-9.897814694151794	40.55335389260146	0.7077895481523545	0	0	0	37.42964998687555	-10.11210867056947	-9.897814694151794	40.55335389260146	0.7077895481523545	0	0	0	-6.800334688263896	-0.9595817292193783	1.721229994963785	38.64528506483089	-1.634184527956218	6.32733781107485	32.36294886992363	135.5654791028488	0	0	82.05271146582196	3.092513046471021	-4.034164159142428	14.20669076550712	97.67360602131021	0	0
20.43999999999965	-7.527118227914771	-2.308469799735752	32.34040299877046	0	0.9399999999999999	0	37.43220358126798	-10.11198049837196	-9.897890157052846	40.55680843013185	0.7078498412063934	0	0	0	37.43220358126798	-10.11198049837196	-9.897890157052846	40.55680843013185	0.7078498412063934	0	0	0	-6.80309934620555	-0.9247205117193038	1.583624198934203	38.64196361711121	-1.68947190966608	6.310497392043033	32.35496251881593	135.569322765592	0	0	80.89821784446512	2.767190256217525	-4.05254545446601	17.12431139107509	97.0881620323205	0	0
20.45999999999965	-7.511259661596442	-2.302670071255414	32.55580781760656	0	0.9399999999999999	0	37.43622985656401	-10.11177747141128	-9.898009509636665	40.562231299875	0.7079444881383181	0	0	0	37.43622985656401	-10.11177747141128	-9.898009509636665	40.562231299875	0.7079444881383181	0	0	0	-6.790694784849386	-0.9131700269822483	1.454063661238315	38.53712663636097	-1.662139781243301	6.00712955075003	32.54050130639936	135.6787019138519	0	0	79.45293953705762	2.485859358102844	-4.321633861999623	20.78715465672773	97.49699740059002	0	0
20.47999999999965	-7.542598529190113	-2.308816989598449	32.98013114368261	0	0.9399999999999999	0	37.44884223879245	-10.1111367009465	-9.898385612416897	40.57902442633529	0.7082375834867539	0	0	0	37.44884223879245	-10.1111367009465	-9.898385612416897	40.57902442633529	0.7082375834867539	0	0	0	-6.828720857696555	-0.8585322424167188	1.150032877366408	38.56649359386174	-1.744230132075224	5.850630613793601	32.59117521118111	135.6778076815263	0	0	75.93735718036233	1.699268453970229	-5.617811016746654	26.9748701512129	99.61978203792032	0	0
20.49999999999965	-7.55518719365086	-2.303919728125602	33.98750900807192	0	0.9399999999999999	0	37.46575599811163	-10.11029038265509	-9.898885567478684	40.60172096331769	0.7086337127858975	0	0	0	37.46575599811163	-10.11029038265509	-9.898885567478684	40.60172096331769	0.7086337127858975	0	0	0	-6.881354176529372	-0.7451915990101317	0.2504082198145218	38.60883285662462	-1.80031115124855	5.781901384580126	32.65092897201127	135.6294912304242	0	0	74.09933413062409	1.33368850400445	-6.235722683350252	34.47889032399853	102.8778362324463	0	0
20.51999999999965	-7.557709182211144	-2.337897576957249	34.2712950495778	0	0.9399999999999999	0	37.469637478602	-10.11009451976403	-9.899000883453567	40.60690174399449	0.7087241344665314	0	0	0	37.469637478602	-10.11009451976403	-9.899000883453567	40.60690174399449	0.7087241344665314	0	0	0	-6.90767980180361	-0.7438262531297504	0.09468274567565246	38.52326327681779	-1.798687538678416	5.621906886157545	32.81785974633885	135.6403511174321	0	0	72.15206939090238	0.7138168129164347	-6.427610842850592	37.87390800157198	103.6964918206233	0	0
